<svg fill='#A4AEBB' id="Capa_1" enable-background="new 0 0 513.108 513.108" height="512" viewBox="0 0 513.108 513.108" width="512" xmlns="http://www.w3.org/2000/svg"><g><path d="m488.276 129.31c-2.819-2.819-5.81-5.402-8.934-7.767 5.162-2.874 9.962-6.469 14.255-10.761 25.054-25.055 25.054-65.821 0-90.875-12.137-12.138-28.275-18.822-45.438-18.822-17.164 0-33.301 6.684-45.437 18.821-4.249 4.249-7.813 8.996-10.672 14.098-2.105-2.689-4.372-5.292-6.846-7.767-16.04-16.04-37.365-24.873-60.049-24.873s-44.01 8.833-60.049 24.873c-33.111 33.111-33.111 86.987-.001 120.098 10.906 10.906 24.069 18.195 37.996 21.917l-141.38 141.38-18.411-18.411c-3.124-3.124-8.19-3.124-11.314 0l-30.657 30.658c-3.124 3.124-3.124 8.19 0 11.314l18.411 18.411-42.175 42.175-33.26-33.261c-3.124-3.124-8.19-3.124-11.314 0l-30.658 30.657c-3.124 3.124-3.124 8.19 0 11.314l33.26 33.26-31.503 31.504c-3.124 3.124-3.124 8.189 0 11.314l31.113 31.113c3.124 3.124 8.189 3.124 11.314 0l299.372-299.371c3.706 14.669 11.303 28.123 22.28 39.099 16.039 16.04 37.365 24.874 60.049 24.874s44.009-8.833 60.049-24.874c33.109-33.111 33.109-86.987-.001-120.098zm-64.341-88.19c6.471-6.471 15.073-10.034 24.225-10.034 9.15 0 17.754 3.564 24.224 10.034 13.358 13.358 13.357 35.091 0 48.449v-.001c-6.471 6.471-15.074 10.035-24.225 10.035s-17.754-3.563-24.225-10.034c-13.357-13.358-13.357-35.092.001-48.449zm-59.945 84.002c-34.637 34.636-95.689 7.78-93.674-41.115 2.16-52.41 72.944-71.579 101.182-27.206 13.634 21.425 10.443 50.37-7.508 68.321zm103.073 103.073c-36.489 36.487-100.328 4.521-93.231-46.506 7.039-50.607 76.469-63.958 101.959-19.803 12.268 21.251 8.618 48.961-8.728 66.309z"/></g></svg>